<svg width="1000" height="20000" viewBox="0 0 1000 20000" fill="none" xmlns="http://www.w3.org/2000/svg">
<g clip-path="url(#clip0_121_57)">
<rect width="1066" height="581" rx="50" transform="matrix(1 0 0 -1 -188 6795)" stroke="#8FFF00" stroke-width="50"/>
<rect width="371" height="881" rx="50" transform="matrix(1 0 0 -1 -188 6560)" stroke="#00214F" stroke-width="50"/>
<rect x="-188" y="5075" width="906" height="889" rx="50" stroke="#8FFF00" stroke-width="50"/>
<rect x="-188" y="4789" width="452" height="786" rx="50" stroke="#00214F" stroke-width="50"/>
<path d="M-252 1251.59L1000 0V474.828L-14.5072 1489L-252 1251.59Z" fill="#8FFF00"/>
<path d="M-252 1940.59L1000 689V1163.83L-14.5072 2178L-252 1940.59Z" fill="#00214F"/>
<path d="M-252 2629.59L1000 1378V1852.83L-14.5072 2867L-252 2629.59Z" fill="#8FFF00"/>
<path d="M-252 3318.59L1000 2067V2541.83L-14.5072 3556L-252 3318.59Z" fill="#00214F"/>
<path d="M-252 4007.59L1000 2756V3230.83L-14.5072 4245L-252 4007.59Z" fill="#8FFF00"/>
</g>
<defs>
<clipPath id="clip0_121_57">
<rect width="1000" height="20000" fill="white"/>
</clipPath>
</defs>
</svg>
