<svg width="828" height="6800" viewBox="0 0 828 6800" fill="none" xmlns="http://www.w3.org/2000/svg">
<rect width="828" height="6800" fill="white"/>
<rect x="50" y="50" width="728" height="400" fill="#DADADA"/>
<rect x="50" y="500" width="728" height="400" fill="#DADADA"/>
<rect x="50" y="950" width="728" height="400" fill="#DADADA"/>
<rect x="50" y="1400" width="728" height="400" fill="#00E600"/>
<rect x="50" y="1850" width="728" height="400" fill="#00E600"/>
<rect x="50" y="2300" width="728" height="400" fill="#00E600"/>
<rect x="50" y="2750" width="728" height="400" fill="black"/>
<rect x="50" y="3200" width="728" height="400" fill="black"/>
<rect x="50" y="3650" width="728" height="400" fill="black"/>
<rect x="50" y="4100" width="728" height="400" fill="#5A5A5A"/>
<rect x="50" y="4550" width="728" height="400" fill="#5A5A5A"/>
<rect x="50" y="5000" width="728" height="400" fill="#5A5A5A"/>
<rect x="50" y="5450" width="728" height="400" fill="#008200"/>
<rect x="50" y="5900" width="728" height="400" fill="#008200"/>
<rect x="50" y="6350" width="728" height="400" fill="#008200"/>
</svg>
