<svg width="511" height="3540" viewBox="0 0 511 3540" fill="none" xmlns="http://www.w3.org/2000/svg">
<path d="M439.365 0L368.654 70.7107L439.365 141.421V0Z" fill="#8FFF00"/>
<path d="M439.365 0L368.654 70.7107L439.365 141.421V0Z" stroke="black"/>
<rect x="369.008" y="70.3572" width="100" height="2000" transform="rotate(45 369.008 70.3572)" fill="#8FFF00"/>
<path d="M439.365 201.281L368.654 271.992L439.365 342.703V201.281Z" fill="#00214F"/>
<path d="M439.365 201.281L368.654 271.992L439.365 342.703V201.281Z" stroke="black"/>
<rect x="368.654" y="271.992" width="100" height="2000" transform="rotate(45 368.654 271.992)" fill="#00214F"/>
<path d="M439.365 402.916L368.654 473.627L439.365 544.338V402.916Z" fill="#8FFF00"/>
<path d="M439.365 402.916L368.654 473.627L439.365 544.338V402.916Z" stroke="black"/>
<rect x="368.654" y="473.627" width="100" height="2000" transform="rotate(45 368.654 473.627)" fill="#8FFF00"/>
<path d="M439.365 604.551L368.654 675.262L439.365 745.973V604.551Z" fill="#00214F"/>
<path d="M439.365 604.551L368.654 675.262L439.365 745.973V604.551Z" stroke="black"/>
<rect x="368.654" y="675.262" width="100" height="2000" transform="rotate(45 368.654 675.262)" fill="#00214F"/>
<path d="M439.365 806.186L368.654 876.897L439.365 947.607V806.186Z" fill="#8FFF00"/>
<path d="M439.365 806.186L368.654 876.897L439.365 947.607V806.186Z" stroke="black"/>
<rect x="368.654" y="876.897" width="100" height="2000" transform="rotate(45 368.654 876.897)" fill="#8FFF00"/>
<rect x="39" y="1601" width="400" height="1117" fill="#D9D9D9"/>
</svg>
